/* XPM */
static char * fastforward_xpm[] = {
"24 24 84 1",
" 	c None",
".	c #000000",
"+	c #3B3E3A",
"@	c #535652",
"#	c #585858",
"$	c #E4E7E2",
"%	c #7B807A",
"&	c #0B0B0A",
"*	c #E4E8E3",
"=	c #7C807A",
"-	c #F5F7F4",
";	c #E3E8E1",
">	c #9A9F98",
",	c #565956",
"'	c #F5F7F3",
")	c #9AA098",
"!	c #F6F7F6",
"~	c #EFF3EE",
"{	c #E9EFE8",
"]	c #B3BAB1",
"^	c #4D504C",
"/	c #B3BAB2",
"(	c #F4F6F3",
"_	c #EDF1EC",
":	c #EAF0E9",
"<	c #E8EEE7",
"[	c #D5DCD2",
"}	c #666A63",
"|	c #656764",
"1	c #F4F5F3",
"2	c #D5DDD3",
"3	c #747474",
"4	c #E8EEE6",
"5	c #DFE7DD",
"6	c #DBE5D9",
"7	c #D9E4D7",
"8	c #7B8579",
"9	c #0F110F",
"0	c #E8EDE6",
"a	c #354030",
"b	c #8EB084",
"c	c #84A97D",
"d	c #83A87B",
"e	c #81A577",
"f	c #7AA070",
"g	c #608557",
"h	c #2B4127",
"i	c #050704",
"j	c #83A97C",
"k	c #7BA071",
"l	c #050703",
"m	c #344030",
"n	c #8CAF82",
"o	c #83A97A",
"p	c #81A578",
"q	c #749A6B",
"r	c #54744D",
"s	c #202B1E",
"t	c #344230",
"u	c #8BAF81",
"v	c #83A979",
"w	c #759B6C",
"x	c #55754E",
"y	c #202C1E",
"z	c #7FA474",
"A	c #6D9262",
"B	c #45643C",
"C	c #1D2B1A",
"D	c #8BAE81",
"E	c #7FA374",
"F	c #45643D",
"G	c #303E2D",
"H	c #80A576",
"I	c #618758",
"J	c #324C2C",
"K	c #23311F",
"L	c #303D2C",
"M	c #2A3727",
"N	c #5E8256",
"O	c #243820",
"P	c #020401",
"Q	c #293727",
"R	c #101A0D",
"S	c #172412",
"                        ",
"                        ",
"                        ",
"                        ",
"                        ",
"   ..       .           ",
"   +@.      +@.         ",
"   #$%&     #*=&        ",
"   #-;>,    #';),       ",
"   #!~{]^   #!~{/^      ",
"   #(_:<[}| #1_:<2}|    ",
"   3(_45678931_056789   ",
"   abcdefghiabjdekghl   ",
"   mnopqrst muvpwxyt    ",
"   muzABC   mDEAFC      ",
"   GHIJK    LHIJK       ",
"   MNOP     QNOP        ",
"   RS.      RS.         ",
"   ..       .           ",
"                        ",
"                        ",
"                        ",
"                        ",
"                        "};
