/* XPM */
static char *magick[] = {
/* columns rows colors chars-per-pixel */
"171 74 10 1",
"  c #020202",
". c #1e1e1e",
"X c #42423e",
"o c #5a5a52",
"O c #6e6e66",
"+ c #86867a",
"@ c #96968a",
"# c #9a9a8e",
"$ c #a4a496",
"% c #c6c6b6",
/* pixels */
"%%%%%%%%%%%%%%%%%%%%%%%%%%%%%%%%%%%%%%%%%%%%%%%%%%%%%%%%%%%%%%%%%%%%%%%%%%%%%%%%%%%%%%%%%%%%%%%%%%%%%%%%%%%%%%%%%%%%%%%%%%%%%%%%%%%%%%%%%%%%%%%%%%%%%%%%%%%%%%%%%%%%%%%%%%%",
"%%%%%%%%%%%%%%%%%%%%%%%%%%++++++%%%%%%%%%%%%%%%%%%%%%%%%%%%%%%%%%%%%%%%%%%%%%%%%%%%%%%%%%%%%%%%%%%%%%%%%%%%%%%%%%%%%%%%%%%%%%%%%%%%%%%%%%%%%%%%%%%%%%%%%%%%%%%%%%%%%%%%%%%%",
"%%%%%%%%%%%%%%%%%%%%%+o.          .o+%%%%%%%%%%%%%%%%%%%%%%%%%%%%%%%%%%%%%%%%%%%%%%%%%%%%%%%%%%%%%%%%%%%%%%%%%%          %%%%%%%%%%%%%%%%%%%%%%%%%%%%%%%%%%%%%%%%%%%%%%%%%%",
"%%%%%%%%%%%%%%%%%%+X                  X#%%%%%%%%%%%%%%%%%%%%%%%%%%%%%%%%%%%%%%%%%%%%%%%%%%%%%%%%%%%%%%%%%%%%%%%          %%%%%%%%%%%%%%%%%%%%%%%%%%%%%%%%%%%%%%%%%%%%%%%%%%",
"%%%%%%%%%%%%%%%%O.                      .O%%%%%%%%%%%%%%%%%%%%%%%%%%%%%%%%%%%%%%%%%%%%%%%%%%%%%%%%%%%%%%%%%%%%%          %%%%%%%%%%%%%%%%%%%%%%%%%%%%%%%%%%%%%%%%%%%%%%%%%%",
"%%%%%%%%%%%%%%+.                          .#%%%%%%%%%%%%%%%%%%%%%%%%%%%%%%%%%%%%%%%%%%%%%%%%%%%%%%%%%%%%%%%%%%%          %%%%%%%%%%%%%%%%%%%%%%%%%%%%%%%%%%%%%%%%%%%%%%%%%%",
"%%%%%%%%%%%%$X                              o%%%%%%%%%%%%%%%%%%%%%%%%%%%%%%%%%%%%%%%%%%%%%%%%%%%%%%%%%%%%%%%%%%          %%%%%%%%%%%%%%%%%%%%%%%%%%%%%%%%%%%%%%%%%%%%%%%%%%",
"%%%%%%%%%%%+.                                .$%%%%%%%%%%%%%%%%%%%%%%%%%%%%%%%%%%%%%%%%%%%%%%%%%%%%%%%%%%%%%%%%          %%%%%%%%%%%%%%%%%%%%%%%%%%%%%%%%%%%%%%%%%%%%%%%%%%",
"%%%%%%%%%%+                                   .+%%%%%%%%%%%%%%%%%%%%%%%%%%%%%%%%%%%%%%%%%%%%%%%%%%%%%%%%%%%%%%%          %%%%%%%%%%%%%%%%%%%%%%%%%%%%%%%%%%%%%%%%%%%%%%%%%%",
"%%%%%%%%%X                                      +%%%%%%%%%%%%%%%%%%%%%%%%%%%%%%%%%%%%%%%%%%%%%%%%%%%%%%%%%%%%%%          %%%%%%%%%%%%%%%%%%%%%%%%%%%%%%%%%%%%%%%%%%%%%%%%%%",
"%%%%%%%%o                                        +%%%%%%%%%%%%%%%%%%%%%%%%%%%%%%%%%%%%%%%%%%%%%%%%%%%%%%%%%%%%%          %%%%%%%%%%%%%%%%%%%%%%%%%%%%%%%%%%%%%%%%%%%%%%%%%%",
"%%%%%%%+                .XO++++oX.                $%%%%%%%%%%%%%%%%%%%%%%%%%%%%%%%%%%%%%%%%%%%%%%%%%%%%%%%%%%%%          %%%%%%%%%%%%%%%%%%%%%%%%%%%%%%%%%%%%%%%%%%%%%%%%%%",
"%%%%%%#              .o$%%%%%%%%%%@o.             .%%%%%%%%%%%%%%%%%%%%%%%%%%%%%%%%%%%%%%%%%%%%%%%%%%%%%%%%%%%%          %%%%%%%%%%%%%%%%%%%%%%%%%%%%%%%%%%%%%%%%%%%%%%%%%%",
"%%%%%%.             O%%%%%%%%%%%%%%%%O.            X%%%%%%%%%%%%%%%%%%%%%%%%%%%%%%%%%%%%%%%%%%%%%%%%%%%%%%%%%%%          %%%%%%%%%%%%%%%%%%%%%%%%%%%%%%%%%%%%%%%%%%%%%%%%%%",
"%%%%%X            X%%%%%%%%%%%%%%%%%%%%X            +%%%%%%%%%%%%%%%%%%%%%%%%%%%%%%%%%%%%%%%%%%%%%%%%%%%%%%%%%%          %%%%%%%%%%%%%%%%%%%%%%%%%%%%%%%%%%%%%%%%%%%%%%%%%%",
"%%%%@            +%%%%%%%%%%%%%%%%%%%%%%O           .%%%%%%%%%%%%%%%%%%%%%%#OX.     Xo+%%%%%%%%%%%%%%%%%%%%%%%%          %%%%%%%%%%%%%%%%%%%%%+oX.    .Xo+%%%%%%%%%%%%%%%%%",
"%%%%.           +%%%%%%%%%%%%%%%%%%%%%%%%+           o%%%%%%%%%%%%%%%%%%$o.             o$%%%%          %%%%%%%          %%%%%%%%%%%%%%%%%%#X              o#%%%%%%%%%%%%%%",
"%%%#           +%%%%%%%%%%%%%%%%%%%%%%%%%%O           %%%%%%%%%%%%%%%%%o                  o%%%          %%%%%%%          %%%%%%%%%%%%%%%%#.                  .$%%%%%%%%%%%%",
"%%%.          X%%%%%%%%%%%%%%%%%%%%%%%%%%%%X          O%%%%%%%%%%%%%%#.                    .$%          %%%%%%%          %%%%%%%%%%%%%%%o                      o%%%%%%%%%%%",
"%%#          .%%%%%%%%%%%%%%%%%%%%%%%%%%%%%%.         .%%%%%%%%%%%%%+                       .%          %%%%%%%          %%%%%%%%%%%%%$.                        .$%%%%%%%%%",
"%%o          @%%%%%%%%%%%%%%%%%%%%%%%%%%%%%%O          #%%%%%%%%%%%+                         .          %%%%%%%          %%%%%%%%%%%%+.                          .%%%%%%%%%",
"%%.         .%%%%%%%%%%%%%%%%%%%%%%%%%%%%%%%%.         o%%%%%%%%%%+                                     %%%%%%%          %%%%%%%%%%%#                             .$%%%%%%%",
"%$          +%%%%%%%%%%%%%%%%%%%%%%%%%%%%%%%%o         .%%%%%%%%%#                                      %%%%%%%          %%%%%%%%%%$.                              X%%%%%%%",
"%+          %%%%%%%%%%%%%%%%%%%%%%%%%%%%%%%%%#          %%%%%%%%%.                                      %%%%%%%          %%%%%%%%%%.                                O%%%%%%",
"%X         X%%%%%%%%%%%%%%%%%%%%%%%%%%%%%%%%%%          +%%%%%%%o             X+$%%%%+X                 %%%%%%%          %%%%%%%%%o            X+@%%%%#+X            $%%%%%",
"%X         +%%%%%%%%%%%%%%%%%%%%%%%%%%%%%%%%%%X         +%%%%%%$            o%%%%%%%%%%%o               %%%%%%%          %%%%%%%%%           o$%%%%%%%%%%%o          .%%%%%",
"%.         +%%%%%%%%%%%%%%%%%%%%%%%%%%%%%%%%%%o         o%%%%%%O           +%%%%%%%%%%%%%+.             %%%%%%%          %%%%%%%%.          +%%%%%%%%%%%%%%#.         #%%%%",
"%          %%%%%%%%%%%%%%%%%%%%%%%%%%%%%%%%%%%+         X%%%%%%.          +%%%%%%%%%%%%%%%$.            %%%%%%%          %%%%%%%#          +%%%%%%%%%%%%%%%%%         o%%%%",
"%          %%%%%%%%%%%%%%%%%%%%%%%%%%%%%%%%%%%+         X%%%%%#          O%%%%%%%%%%%%%%%%%O            %%%%%%%          %%%%%%%o         O%%%%%%%%%%%%%%%%%%+         %%%%",
"%          %%%%%%%%%%%%%%%%%%%%%%%%%%%%%%%%%%%+         X%%%%%o         .%%%%%%%%%%%%%%%%%%%o           %%%%%%%          %%%%%%%.        .%%%%%%%%%%%%%%%%%%%%.        +%%%",
"%          %%%%%%%%%%%%%%%%%%%%%%%%%%%%%%%%%%%+         X%%%%%.         O%%%%%%%%%%%%%%%%%%%$           %%%%%%%          %%%%%%@         O%%%%%%%%%%%%%%%%%%%%+        X%%%",
"%          $%%%%%%%%%%%%%%%%%%%%%%%%%%%%%%%%%%+         X%%%%%          %%%%%%%%%%%%%%%%%%%%%.          %%%%%%%          %%%%%%O         O+++++++++++++++++++++        .%%%",
"%.         +%%%%%%%%%%%%%%%%%%%%%%%%%%%%%%%%%%X         o%%%%%         X%%%%%%%%%%%%%%%%%%%%%O          %%%%%%%          %%%%%%X                                        @%%",
"%X         O%%%%%%%%%%%%%%%%%%%%%%%%%%%%%%%%%%X         +%%%%+         o%%%%%%%%%%%%%%%%%%%%%#          %%%%%%%          %%%%%%.                                        O%%",
"%o         .%%%%%%%%%%%%%%%%%%%%%%%%%%%%%%%%%%          #%%%%+         +%%%%%%%%%%%%%%%%%%%%%%          %%%%%%%          %%%%%%                                         X%%",
"%+          %%%%%%%%%%%%%%%%%%%%%%%%%%%%%%%%%+          %%%%%+         +%%%%%%%%%%%%%%%%%%%%%%          %%%%%%%          %%%%%%                                         .%%",
"%%          O%%%%%%%%%%%%%%%%%%%%%%%%%%%%%%%%X         .%%%%%+         +%%%%%%%%%%%%%%%%%%%%%%          %%%%%%%          %%%%%%                                          %%",
"%%.         .%%%%%%%%%%%%%%%%%%%%%%%%%%%%%%%$          o%%%%%+         +%%%%%%%%%%%%%%%%%%%%%%          %%%%%%%          %%%%%%                                          %%",
"%%O          o%%%%%%%%%%%%%%%%%%%%%%%%%%%%%%o          #%%%%%#         o%%%%%%%%%%%%%%%%%%%%%#          %%%%%%%          %%%%%%                                         .%%",
"%%%           $%%%%%%%%%%%%%%%%%%%%%%%%%%%%%          .%%%%%%%         X%%%%%%%%%%%%%%%%%%%%%+          %%%%%%%          %%%%%%X                                         %%",
"%%%o          .%%%%%%%%%%%%%%%%%%%%%%%%%%%%.          O%%%%%%%          %%%%%%%%%%%%%%%%%%%%%X          %%%%%%%          %%%%%%X         o%%%%%%%%%%%%%%%%%%%%%%%%%%%%%%%%%",
"%%%$           X%%%%%%%%%%%%%%%%%%%%%%%%%%X           %%%%%%%%X         +%%%%%%%%%%%%%%%%%%%$           %%%%%%%          %%%%%%+         X%%%%%%%%%%%%%%%%%%%%%%%%%%%%%%%%%",
"%%%%o           X%%%%%%%%%%%%%%%%%%%%%%%%X           o%%%%%%%%O         .%%%%%%%%%%%%%%%%%%%o           %%%%%%%          %%%%%%%          $%%%%%%%%%%%%%%%%%%%%%%%%%%%%%%%%",
"%%%%%            .$%%%%%%%%%%%%%%%%%%%%%X           .$%%%%%%%%%          O%%%%%%%%%%%%%%%%%#            %%%%%%%          %%%%%%%.         X%%%%%%%%%%%%%%%%%%%%%%%%%%%%%%%%",
"%%%%%O            .O%%%%%%%%%%%%%%%%%%@.            O%%%%%%%%%%.          +%%%%%%%%%%%%%%%$.            %%%%%%%          %%%%%%%+          O%%%%%%%%%%%%%%%%%X         $%%%",
"%%%%%%X             .@%%%%%%%%%%%%%%@o             X%%%%%%%%%%%O           O%%%%%%%%%%%%%$.             %%%%%%%          %%%%%%%%.          o%%%%%%%%%%%%%%O.         .%%%%",
"%%%%%%$.              .o@%%%%%%%%@O.              .%%%%%%%%%%%%%.           .+%%%%%%%%%#o               %%%%%%%          %%%%%%%%O           .#%%%%%%%%%%%O           O%%%%",
"%%%%%%%%.                 .XXXX.                  @%%%%%%%%%%%%%O              XO++++X.                 %%%%%%%          %%%%%%%%%.            .O+%%%%%+o.           .%%%%%",
"%%%%%%%%O                                        +%%%%%%%%%%%%%%%.                                      %%%%%%%          %%%%%%%%%%                                  #%%%%%",
"%%%%%%%%%+.                                     +%%%%%%%%%%%%%%%%$.                                     %%%%%%%          %%%%%%%%%%+                                o%%%%%%",
"%%%%%%%%%%%                                   .+%%%%%%%%%%%%%%%%%%+                                     %%%%%%%          %%%%%%%%%%%+                              X%%%%%%%",
"%%%%%%%%%%%$X                                .%%%%%%%%%%%%%%%%%%%%%+                         ..         %%%%%%%          %%%%%%%%%%%%+                            X%%%%%%%%",
"%%%%%%%%%%%%%+.                             o%%%%%%%%%%%%%%%%%%%%%%%+                       .$X         %%%%%%%          %%%%%%%%%%%%%+.                         O%%%%%%%%%",
"%%%%%%%%%%%%%%%o                          .$%%%%%%%%%%%%%%%%%%%%%%%%%$.                    X%%.        X%%%%%%%          %%%%%%%%%%%%%%%X                      .#%%%%%%%%%%",
"%%%%%%%%%%%%%%%%%o                      X#%%%%%%%%%%%%%%%%%%%%%%%%%%%%%O.                 O%%%         X%%%%%%%          %%%%%%%%%%%%%%%%@.                  .O%%%%%%%%%%%%",
"%%%%%%%%%%%%%%%%%%%+X                .O$%%%%%%%%%%%%%%%%%%%%%%%%%%%%%%%%%O.             o%%%%#         @%%%%%%%          %%%%%%%%%%%%%%%%%%#X              .O%%%%%%%%%%%%%%",
"%%%%%%%%%%%%%%%%%%%%%%@OXX      .XO+%%%%%%%%%%%%%%%%%%%%%%%%%%%%%%%%%%%%%%%#OX.     Xo+%%%%%%o         %%%%%%%%%%%%%%%%%%%%%%%%%%%%%%%%%%%%%%%#OX.     XX+%%%%%%%%%%%%%%%%%",
"%%%%%%%%%%%%%%%%%%%%%%%%%%%%%%%%%%%%%%%%%%%%%%%%%%%%%%%%%%%%%%%%%%%%%%%%%%%%%%%%%%%%%%%%%%%%%.        X%%%%%%%%%%%%%%%%%%%%%%%%%%%%%%%%%%%%%%%%%%%%%%%%%%%%%%%%%%%%%%%%%%%%",
"%%%%%%%%%%%%%%%%%%%%%%%%%%%%%%%%%%%%%%%%%%%%%%%%%%%%%%%%%%%%%%%%%%%%%%%%%%%%%%%%%%%%%%%%%%%%O         O%%%%%%%%%%%%%%%%%%%%%%%%%%%%%%%%%%%%%%%%%%%%%%%%%%%%%%%%%%%%%%%%%%%%",
"                                                            o%+XXXXXXXXXX+%%%%%%%%%%%%%%%%%$.         $%o                                                                 %",
"                                                            .%%           O%%%%%%%%%%%%%%%%          .%%O                                                                 %",
"                                                             #%o           X%%%%%%%%%%%%%@.          O%@.                                                                 %",
"                                                             X%%.            o+%%%%%%%%+X           .%%X                                                                  %",
"                                                              $%+               .XXXX.              +%@o                                                                  %",
"                                                              .%%o                                 X%%.                                                                   %",
"%%%%%%%%%%%%%%%%%%%%%%%%%%%%%%%%%%%%%%%%%%%%%%%%%%%%%%%%%%%%%%%%%%X                               .%%%%%%%%%%%%%%%%%%%%%%%%%%%%%%%%%%%%%%%%%%%%%%%%%%%%%%%%%%%%%%%%%%%%%%%%",
"%%%%%%%%%%%%%%%%%%%%%%%%%%%%%%%%%%%%%%%%%%%%%%%%%%%%%%%%%%%%%%%%%%%X                             .#%%%%%%%%%%%%%%%%%%%%%%%%%%%%%%%%%%%%%%%%%%%%%%%%%%%%%%%%%%%%%%%%%%%%%%%%",
"%%%%%%%%%%%%%%%%%%%%%%%%%%%%%%%%%%%%%%%%%%%%%%%%%%%%%%%%%%%%%%%%%%%%+                           .$%%%%%%%%%%%%%%%%%%%%%%%%%%%%%%%%%%%%%%%%%%%%%%%%%%%%%%%%%%%%%%%%%%%%%%%%%",
"%%%%%%%%%%%%%%%%%%%%%%%%%%%%%%%%%%%%%%%%%%%%%%%%%%%%%%%%%%%%%%%%%%%%%$.                        .%%%%%%%%%%%%%%%%%%%%%%%%%%%%%%%%%%%%%%%%%%%%%%%%%%%%%%%%%%%%%%%%%%%%%%%%%%%",
"%%%%%%%%%%%%%%%%%%%%%%%%%%%%%%%%%%%%%%%%%%%%%%%%%%%%%%%%%%%%%%%%%%%%%%%#.                    .+%%%%%%%%%%%%%%%%%%%%%%%%%%%%%%%%%%%%%%%%%%%%%%%%%%%%%%%%%%%%%%%%%%%%%%%%%%%%",
"%%%%%%%%%%%%%%%%%%%%%%%%%%%%%%%%%%%%%%%%%%%%%%%%%%%%%%%%%%%%%%%%%%%%%%%%%#o.               X+%%%%%%%%%%%%%%%%%%%%%%%%%%%%%%%%%%%%%%%%%%%%%%%%%%%%%%%%%%%%%%%%%%%%%%%%%%%%%%",
"%%%%%%%%%%%%%%%%%%%%%%%%%%%%%%%%%%%%%%%%%%%%%%%%%%%%%%%%%%%%%%%%%%%%%%%%%%%%#OXX      .Xo+%%%%%%%%%%%%%%%%%%%%%%%%%%%%%%%%%%%%%%%%%%%%%%%%%%%%%%%%%%%%%%%%%%%%%%%%%%%%%%%%%",
"%%%%%%%%%%%%%%%%%%%%%%%%%%%%%%%%%%%%%%%%%%%%%%%%%%%%%%%%%%%%%%%%%%%%%%%%%%%%%%%%%%%%%%%%%%%%%%%%%%%%%%%%%%%%%%%%%%%%%%%%%%%%%%%%%%%%%%%%%%%%%%%%%%%%%%%%%%%%%%%%%%%%%%%%%%%",
"%%%%%%%%%%%%%%%%%%%%%%%%%%%%%%%%%%%%%%%%%%%%%%%%%%%%%%%%%%%%%%%%%%%%%%%%%%%%%%%%%%%%%%%%%%%%%%%%%%%%%%%%%%%%%%%%%%%%%%%%%%%%%%%%%%%%%%%%%%%%%%%%%%%%%%%%%%%%%%%%%%%%%%%%%%%"
};
