/* XPM */
static char *rewind[] = {
/* width height num_colors chars_per_pixel */
"    24    24       84            2",
/* colors */
".. c None",
".# c #000000",
".a c #3b3e3a",
".b c #535652",
".c c #585858",
".d c #e4e7e2",
".e c #7b807a",
".f c #0b0b0a",
".g c #e4e8e3",
".h c #7c807a",
".i c #f5f7f4",
".j c #e3e8e1",
".k c #9a9f98",
".l c #565956",
".m c #f5f7f3",
".n c #9aa098",
".o c #f6f7f6",
".p c #eff3ee",
".q c #e9efe8",
".r c #b3bab1",
".s c #4d504c",
".t c #b3bab2",
".u c #f4f6f3",
".v c #edf1ec",
".w c #eaf0e9",
".x c #e8eee7",
".y c #d5dcd2",
".z c #666a63",
".A c #656764",
".B c #f4f5f3",
".C c #d5ddd3",
".D c #747474",
".E c #e8eee6",
".F c #dfe7dd",
".G c #dbe5d9",
".H c #d9e4d7",
".I c #7b8579",
".J c #0f110f",
".K c #e8ede6",
".L c #354030",
".M c #8eb084",
".N c #84a97d",
".O c #83a87b",
".P c #81a577",
".Q c #7aa070",
".R c #608557",
".S c #2b4127",
".T c #050704",
".U c #83a97c",
".V c #7ba071",
".W c #050703",
".X c #344030",
".Y c #8caf82",
".Z c #83a97a",
".0 c #81a578",
".1 c #749a6b",
".2 c #54744d",
".3 c #202b1e",
".4 c #344230",
".5 c #8baf81",
".6 c #83a979",
".7 c #759b6c",
".8 c #55754e",
".9 c #202c1e",
"#. c #7fa474",
"## c #6d9262",
"#a c #45643c",
"#b c #1d2b1a",
"#c c #8bae81",
"#d c #7fa374",
"#e c #45643d",
"#f c #303e2d",
"#g c #80a576",
"#h c #618758",
"#i c #324c2c",
"#j c #23311f",
"#k c #303d2c",
"#l c #2a3727",
"#m c #5e8256",
"#n c #243820",
"#o c #020401",
"#p c #293727",
"#q c #101a0d",
"#r c #172412",
/* pixels */
"................................................",
"................................................",
"................................................",
"................................................",
"................................................",
".......................#...............#.#......",
"...................#.b.a.............#.b.a......",
".................f.h.g.c...........f.e.d.c......",
"...............l.n.j.m.c.........l.k.j.i.c......",
".............s.t.q.p.o.c.......s.r.q.p.o.c......",
".........A.z.C.x.w.v.B.c...A.z.y.x.w.v.u.c......",
".......J.I.H.G.F.K.v.B.D.J.I.H.G.F.E.v.u.D......",
".......W.S.R.V.P.O.U.M.L.T.S.R.Q.P.O.N.M.L......",
".........4.9.8.7.0.6.5.X...4.3.2.1.0.Z.Y.X......",
"............#b#e###d#c.X......#b#a###..5.X......",
"..............#j#i#h#g#k........#j#i#h#g#f......",
"................#o#n#m#p..........#o#n#m#l......",
"...................##r#q.............##r#q......",
".......................#...............#.#......",
"................................................",
"................................................",
"................................................",
"................................................",
"................................................"
};


