/* XPM */
static char *begin[] = {
/* width height num_colors chars_per_pixel */
"    24    24       88            2",
/* colors */
".. c None",
".# c #000000",
".a c #3b3e3a",
".b c #535652",
".c c #c6d7c3",
".d c #585858",
".e c #e4e7e2",
".f c #7b807a",
".g c #0b0b0a",
".h c #e4e8e3",
".i c #7c807a",
".j c #f5f7f4",
".k c #e3e8e1",
".l c #9a9f98",
".m c #565956",
".n c #f5f7f3",
".o c #9aa098",
".p c #f6f7f6",
".q c #eff3ee",
".r c #e9efe8",
".s c #b3bab1",
".t c #4d504c",
".u c #b3bab2",
".v c #f4f6f3",
".w c #edf1ec",
".x c #eaf0e9",
".y c #e8eee7",
".z c #d5dcd2",
".A c #666a63",
".B c #656764",
".C c #f4f5f3",
".D c #d5ddd3",
".E c #747474",
".F c #e8eee6",
".G c #dfe7dd",
".H c #dbe5d9",
".I c #d9e4d7",
".J c #7b8579",
".K c #0f110f",
".L c #e8ede6",
".M c #354030",
".N c #8eb084",
".O c #84a97d",
".P c #83a87b",
".Q c #81a577",
".R c #7aa070",
".S c #608557",
".T c #2b4127",
".U c #050704",
".V c #83a97c",
".W c #7ba071",
".X c #67925c",
".Y c #344030",
".Z c #8caf82",
".0 c #83a97a",
".1 c #81a578",
".2 c #749a6b",
".3 c #54744d",
".4 c #202b1e",
".5 c #344230",
".6 c #8baf81",
".7 c #83a979",
".8 c #759b6c",
".9 c #55754e",
"#. c #202c1e",
"## c #7fa474",
"#a c #6d9262",
"#b c #45643c",
"#c c #1d2b1a",
"#d c #8bae81",
"#e c #7fa374",
"#f c #45643d",
"#g c #303e2d",
"#h c #80a576",
"#i c #618758",
"#j c #324c2c",
"#k c #23311f",
"#l c #303d2c",
"#m c #608c56",
"#n c #2a3727",
"#o c #5e8256",
"#p c #243820",
"#q c #020401",
"#r c #293727",
"#s c #5b8851",
"#t c #101a0d",
"#u c #172412",
"#v c #36582e",
/* pixels */
"................................................",
"................................................",
"................................................",
"................................................",
"................................................",
".....#.#.#...............#...............#.#....",
".....#.c.#...........#.b.a.............#.b.a....",
".....#.c.#.........g.i.h.d...........g.f.e.d....",
".....#.c.#.......m.o.k.n.d.........m.l.k.j.d....",
".....#.c.#.....t.u.r.q.p.d.......t.s.r.q.p.d....",
".....#.c.#.B.A.D.y.x.w.C.d...B.A.z.y.x.w.v.d....",
".....#.c.#.J.I.H.G.L.w.C.E.K.J.I.H.G.F.w.v.E....",
".....#.X.#.T.S.W.Q.P.V.N.M.U.T.S.R.Q.P.O.N.M....",
".....#.X.#.5#..9.8.1.7.6.Y...5.4.3.2.1.0.Z.Y....",
".....#.X.#....#c#f#a#e#d.Y......#c#b#a##.6.Y....",
".....##m.#......#k#j#i#h#l........#k#j#i#h#g....",
".....##s.#........#q#p#o#r..........#q#p#o#n....",
".....##v.#...........##u#t.............##u#t....",
".....#.#.#...............#...............#.#....",
"................................................",
"................................................",
"................................................",
"................................................",
"................................................"
};


