/* XPM */
static char * end_xpm[] = {
"24 24 88 1",
" 	c None",
".	c #000000",
"+	c #3B3E3A",
"@	c #535652",
"#	c #C6D7C3",
"$	c #585858",
"%	c #E4E7E2",
"&	c #7B807A",
"*	c #0B0B0A",
"=	c #E4E8E3",
"-	c #7C807A",
";	c #F5F7F4",
">	c #E3E8E1",
",	c #9A9F98",
"'	c #565956",
")	c #F5F7F3",
"!	c #9AA098",
"~	c #F6F7F6",
"{	c #EFF3EE",
"]	c #E9EFE8",
"^	c #B3BAB1",
"/	c #4D504C",
"(	c #B3BAB2",
"_	c #F4F6F3",
":	c #EDF1EC",
"<	c #EAF0E9",
"[	c #E8EEE7",
"}	c #D5DCD2",
"|	c #666A63",
"1	c #656764",
"2	c #F4F5F3",
"3	c #D5DDD3",
"4	c #747474",
"5	c #E8EEE6",
"6	c #DFE7DD",
"7	c #DBE5D9",
"8	c #D9E4D7",
"9	c #7B8579",
"0	c #0F110F",
"a	c #E8EDE6",
"b	c #354030",
"c	c #8EB084",
"d	c #84A97D",
"e	c #83A87B",
"f	c #81A577",
"g	c #7AA070",
"h	c #608557",
"i	c #2B4127",
"j	c #050704",
"k	c #83A97C",
"l	c #7BA071",
"m	c #67925C",
"n	c #344030",
"o	c #8CAF82",
"p	c #83A97A",
"q	c #81A578",
"r	c #749A6B",
"s	c #54744D",
"t	c #202B1E",
"u	c #344230",
"v	c #8BAF81",
"w	c #83A979",
"x	c #759B6C",
"y	c #55754E",
"z	c #202C1E",
"A	c #7FA474",
"B	c #6D9262",
"C	c #45643C",
"D	c #1D2B1A",
"E	c #8BAE81",
"F	c #7FA374",
"G	c #45643D",
"H	c #303E2D",
"I	c #80A576",
"J	c #618758",
"K	c #324C2C",
"L	c #23311F",
"M	c #303D2C",
"N	c #608C56",
"O	c #2A3727",
"P	c #5E8256",
"Q	c #243820",
"R	c #020401",
"S	c #293727",
"T	c #5B8851",
"U	c #101A0D",
"V	c #172412",
"W	c #36582E",
"                        ",
"                        ",
"                        ",
"                        ",
"                        ",
"  ..       .       ...  ",
"  +@.      +@.     .#.  ",
"  $%&*     $=-*    .#.  ",
"  $;>,'    $)>!'   .#.  ",
"  $~{]^/   $~{](/  .#.  ",
"  $_:<[}|1 $2:<[3|1.#.  ",
"  4_:56789042:a6789.#.  ",
"  bcdefghijbckeflhi.m.  ",
"  nopqrstu nvwqxyzu.m.  ",
"  nvABCD   nEFBGD  .m.  ",
"  HIJKL    MIJKL   .N.  ",
"  OPQR     SPQR    .T.  ",
"  UV.      UV.     .W.  ",
"  ..       .       ...  ",
"                        ",
"                        ",
"                        ",
"                        ",
"                        "};
